<svg preserveAspectRatio="none" overflow="visible" style="display: block;" width="36" height="36" viewBox="0 0 36 36" fill="none" xmlns="http://www.w3.org/2000/svg">
<g id="Kulicka2">
<circle id="Oval" cx="18" cy="18" r="18" fill="url(#paint0_linear_8034_245539)"/>
<path id="Union" fill-rule="evenodd" clip-rule="evenodd" d="M15.8008 10.3636C13.5801 10.3636 10.7317 11.107 7.89781 13.2183C7.49037 13.1756 7.10276 13.1921 6.73788 13.2821C6.21668 13.4107 5.80108 13.675 5.47699 14.0208C4.91562 14.6197 4.64744 15.4655 4.45135 16.0839L4.44579 16.1014L4.42482 16.1675C4.24923 16.7199 4.05412 17.3764 3.95458 18.0419C3.85577 18.7024 3.837 19.4566 4.08641 20.1759C4.34894 20.9332 4.88061 21.5688 5.71803 21.9922C6.28183 22.2773 6.96379 22.4568 7.76803 22.5387C8.17586 23.7829 9.3464 24.6818 10.7274 24.6818C12.089 24.6818 13.246 23.808 13.6691 22.5909H22.331C22.7541 23.808 23.9111 24.6818 25.2727 24.6818C26.6429 24.6818 27.806 23.7968 28.2224 22.5675C28.4989 22.5528 28.7749 22.5286 29.0408 22.4887C29.7281 22.3857 30.5221 22.1559 31.103 21.5467C32.7121 19.8591 32.1679 17.5859 31.0934 16.4889C30.1848 15.5613 29.0385 14.9688 28.0014 14.5209C27.5903 14.3434 27.1767 14.1807 26.7951 14.0305L26.7938 14.03C26.693 13.9904 26.5942 13.9515 26.4983 13.9135C26.026 13.7262 25.6213 13.5587 25.2805 13.3846C24.9853 13.2339 24.6658 13.0054 24.2736 12.6997C24.174 12.622 24.0692 12.539 23.9596 12.4522L23.9579 12.4508C23.661 12.2156 23.3302 11.9534 22.9905 11.711C22.0386 11.0318 20.8284 10.3636 19.268 10.3636H15.8008ZM8.80557 15.0993C11.4024 13.0565 13.9543 12.4091 15.8008 12.4091H19.268C20.2065 12.4091 20.9936 12.7989 21.8024 13.3761C22.0971 13.5863 22.3706 13.803 22.6578 14.0306L22.6586 14.0313C22.775 14.1235 22.8937 14.2176 23.0162 14.313C23.4194 14.6272 23.8691 14.9606 24.3502 15.2063C24.7858 15.4288 25.2709 15.6272 25.7445 15.815C25.8486 15.8562 25.9529 15.8973 26.0564 15.938L26.0582 15.9387C26.4379 16.0881 26.8132 16.2358 27.1904 16.3987C28.1552 16.8154 29.0061 17.281 29.6322 17.9202C30.1078 18.4058 30.3114 19.4127 29.6226 20.1352C29.51 20.2533 29.2638 20.387 28.7377 20.4658C28.5713 20.4908 28.3939 20.508 28.2054 20.5199C27.775 19.3162 26.6247 18.4545 25.2727 18.4545C23.9111 18.4545 22.754 19.3284 22.3309 20.5455H13.6691C13.246 19.3284 12.089 18.4545 10.7274 18.4545C9.38857 18.4545 8.24759 19.2994 7.80754 20.4845C7.27661 20.4166 6.90186 20.2988 6.64105 20.1669C6.265 19.9767 6.10319 19.7487 6.019 19.5059C5.9217 19.2253 5.90294 18.8431 5.97752 18.3445C6.05136 17.8509 6.20297 17.3257 6.37417 16.7871C6.49231 16.4154 6.58901 16.1275 6.68504 15.9015C6.78111 15.6753 6.87104 15.5245 6.96936 15.4196C7.04124 15.3429 7.11552 15.2957 7.22791 15.268C7.35605 15.2364 7.58403 15.2189 7.96849 15.2975C8.26308 15.3577 8.56924 15.2852 8.80557 15.0993ZM9.65918 21.5682C9.65918 20.9782 10.1374 20.5 10.7274 20.5C11.3173 20.5 11.7955 20.9782 11.7955 21.5682C11.7955 22.1581 11.3173 22.6364 10.7274 22.6364C10.1374 22.6364 9.65918 22.1581 9.65918 21.5682ZM24.2045 21.5682C24.2045 20.9782 24.6827 20.5 25.2727 20.5C25.8626 20.5 26.3408 20.9782 26.3408 21.5682C26.3408 22.1581 25.8626 22.6364 25.2727 22.6364C24.6827 22.6364 24.2045 22.1581 24.2045 21.5682Z" fill="white"/>
</g>
<defs>
<linearGradient id="paint0_linear_8034_245539" x1="18" y1="0" x2="18" y2="36" gradientUnits="userSpaceOnUse">
<stop stop-color="#FE3433"/>
<stop offset="1" stop-color="#C90604"/>
</linearGradient>
</defs>
</svg>
