<svg preserveAspectRatio="none" overflow="visible" style="display: block;" width="40" height="40" viewBox="0 0 40 40" fill="none" xmlns="http://www.w3.org/2000/svg">
<g id="day02 1">
<path id="Vector" d="M19.9327 37.3369C30.5615 37.3369 39.1779 33.9808 39.1779 29.8408C39.1779 25.7009 30.5615 22.3448 19.9327 22.3448C9.30387 22.3448 0.6875 25.7009 0.6875 29.8408C0.6875 33.9808 9.30387 37.3369 19.9327 37.3369Z" fill="url(#paint0_radial_8034_245494)"/>
<path id="Vector_2" d="M28.1115 23.8542C34.2223 23.8542 39.1761 20.6546 39.1761 16.7076C39.1761 12.7607 34.2223 9.56104 28.1115 9.56104C22.0007 9.56104 17.0469 12.7607 17.0469 16.7076C17.0469 20.6546 22.0007 23.8542 28.1115 23.8542Z" fill="url(#paint1_radial_8034_245494)"/>
<path id="Vector_3" d="M35.7732 19.0245C36.9975 11.3093 31.7356 4.06235 24.0204 2.83804C16.3052 1.61372 9.05832 6.87563 7.834 14.5908C6.60969 22.306 11.8716 29.5529 19.5868 30.7772C27.302 32.0016 34.5489 26.7397 35.7732 19.0245Z" fill="url(#paint2_radial_8034_245494)"/>
<path id="Vector_4" d="M28.9846 19.0384L35.7476 19.5378L29.3396 17.4654L35.013 16.7648L29.284 16.095L35.7216 13.9458L29.0152 14.5046L33.991 11.6674L28.444 13.2602L33.5762 8.78939L27.5924 11.8946L31.1128 7.35239L26.5926 10.9652L29.638 4.85379L25.2876 10.0324L26.817 4.47719L24.0112 9.55979L24.5062 2.73779L22.4518 9.20159L21.7572 3.47879L21.0932 9.25779L18.9626 2.76399L19.5166 9.52879L16.704 4.50979L18.2828 10.1052L13.8508 4.92819L16.929 10.9642L12.4264 7.41299L16.0078 11.9728L9.94916 8.90079L15.0832 13.2892L9.57576 11.7464L14.6144 14.5766L7.85156 14.0772L14.2598 16.1498L8.58636 16.8502L14.3152 17.52L7.87756 19.6692L14.5842 19.1104L9.60816 21.9476L15.155 20.355L10.023 24.8258L16.007 21.7206L12.4864 26.2626L17.0068 22.65L13.9614 28.7614L18.3118 23.5826L16.7822 29.138L19.588 24.0554L19.093 30.8772L21.1474 24.4134L21.842 30.1362L22.506 24.3574L24.6366 30.851L24.0826 24.0862L26.8952 29.1054L25.3164 23.51L29.7484 28.687L26.6702 22.6508L31.1728 26.2022L27.5914 21.6422L33.65 24.7142L28.5162 20.326L34.0234 21.8688L28.9846 19.0384Z" fill="url(#paint3_radial_8034_245494)"/>
<path id="Vector_5" d="M24.6183 23.4293C28.2753 21.8748 29.9796 17.65 28.4251 13.993C26.8705 10.336 22.6457 8.63164 18.9887 10.1862C15.3318 11.7408 13.6274 15.9656 15.182 19.6225C16.7365 23.2795 20.9613 24.9839 24.6183 23.4293Z" fill="url(#paint4_radial_8034_245494)"/>
<path id="Vector_6" d="M39.4153 24.3754C39.4153 23.2378 38.7627 22.2548 37.8129 21.7736C37.9008 21.5285 37.946 21.2701 37.9465 21.0098C37.9465 19.7488 36.9241 18.7264 35.6631 18.7264C35.4069 18.7264 35.1611 18.7706 34.9313 18.8484C34.0225 17.2988 32.3403 16.2578 30.4143 16.2578C28.8361 16.2578 27.4221 16.9572 26.4625 18.0618C26.0562 17.7979 25.5821 17.6575 25.0977 17.6578C24.0957 17.6578 23.2329 18.2446 22.8277 19.092C22.1851 18.4948 21.3265 18.1266 20.3799 18.1266C20.1753 18.1266 19.9759 18.1476 19.7805 18.1804C19.5911 17.0162 18.5839 16.1266 17.3663 16.1266C16.8799 16.1266 16.4277 16.2702 16.0465 16.5148C15.0795 15.439 13.6777 14.762 12.1173 14.762C10.1913 14.762 8.50649 15.7932 7.58369 17.3332C7.33804 17.2438 7.0787 17.1978 6.81729 17.1974C5.56649 17.1974 4.55269 18.2114 4.55269 19.462C4.55269 19.707 4.59289 19.9424 4.66469 20.1634C3.70609 20.6808 3.05469 21.6942 3.05469 22.8598C3.05469 24.2772 4.01889 25.4664 5.32629 25.8156C6.07529 26.5396 7.09329 26.9872 8.21729 26.9872C8.94869 26.9872 9.63509 26.7972 10.2323 26.466C10.8094 26.8298 11.4774 27.0234 12.1596 27.0246C12.8418 27.0258 13.5105 26.8345 14.0889 26.4728C14.8126 26.9017 15.6386 27.1276 16.4799 27.1266C17.4848 27.128 18.4635 26.8059 19.2711 26.2078C20.0051 26.8996 20.9917 27.3266 22.0799 27.3266C22.1773 27.3266 22.2729 27.3188 22.3685 27.312C23.331 28.0991 24.5365 28.5283 25.7799 28.5266C26.6617 28.5266 27.4933 28.3138 28.2285 27.939C28.8438 28.3229 29.5546 28.5265 30.2799 28.5266C30.9775 28.5266 31.6309 28.3412 32.1975 28.0202C32.8198 28.4163 33.5422 28.6266 34.2799 28.6266C35.5057 28.6266 36.5983 28.06 37.3131 27.1754C38.5271 26.8222 39.4151 25.7036 39.4151 24.3756L39.4153 24.3754Z" fill="white"/>
<path id="Vector_7" d="M37.8129 21.7734C37.9008 21.5283 37.946 21.2699 37.9465 21.0096C37.9465 20.939 37.9423 20.8694 37.9359 20.8004C37.4617 20.2524 36.7631 19.9044 35.9813 19.9044C35.6123 19.9046 35.2477 19.9841 34.9121 20.1376C33.9342 19.3375 32.7093 18.9012 31.4459 18.903C30.0009 18.903 28.6879 19.463 27.7083 20.3764C27.2902 20.8627 26.9395 21.4031 26.6655 21.983C26.6489 21.4468 26.7601 20.9288 26.9681 20.4496C26.513 20.1682 25.9885 20.0194 25.4535 20.0198C24.4103 20.0198 23.4983 20.572 22.9865 21.3982C22.6644 21.2287 22.3211 21.1032 21.9657 21.025C21.3111 20.3486 20.3955 19.9264 19.3799 19.9264C19.3039 19.9264 19.2299 19.9332 19.1551 19.9378C18.9151 18.7198 17.8423 17.801 16.5541 17.801C16.0251 17.8002 15.5081 17.9583 15.0701 18.2548C13.9871 16.9542 12.3561 16.126 10.5313 16.126C9.64649 16.126 8.80849 16.3228 8.05529 16.672C7.88147 16.8799 7.72382 17.1008 7.58369 17.3328C7.33804 17.2434 7.0787 17.1974 6.81729 17.197C5.56649 17.197 4.55269 18.211 4.55269 19.4616C4.55269 19.7066 4.59289 19.942 4.66469 20.163C3.70609 20.6804 3.05469 21.6938 3.05469 22.8594C3.05469 24.2768 4.01889 25.466 5.32629 25.8152C6.07529 26.5392 7.09329 26.9868 8.21729 26.9868C8.94869 26.9868 9.63509 26.7968 10.2323 26.4656C10.8094 26.8294 11.4774 27.023 12.1596 27.0242C12.8418 27.0254 13.5105 26.8342 14.0889 26.4724C14.8126 26.9014 15.6386 27.1272 16.4799 27.1262C17.4848 27.1276 18.4635 26.8055 19.2711 26.2074C20.0051 26.8992 20.9917 27.3262 22.0799 27.3262C22.1773 27.3262 22.2729 27.3184 22.3685 27.3116C23.331 28.0987 24.5365 28.5279 25.7799 28.5262C26.6617 28.5262 27.4933 28.3134 28.2285 27.9386C28.8438 28.3225 29.5546 28.5261 30.2799 28.5262C30.9775 28.5262 31.6309 28.3408 32.1975 28.0198C32.8198 28.4159 33.5422 28.6262 34.2799 28.6262C35.5057 28.6262 36.5983 28.0596 37.3131 27.175C38.5271 26.8218 39.4151 25.7032 39.4151 24.3752C39.4151 23.2376 38.7625 22.2546 37.8127 21.7734H37.8129Z" fill="url(#paint5_linear_8034_245494)"/>
<path id="Vector_8" d="M23.4859 24.0264C23.1357 24.0264 22.8003 24.0872 22.4863 24.1942C21.7009 22.6134 20.0707 21.5264 18.1859 21.5264C17.7649 21.5264 17.3569 21.581 16.9677 21.6828C16.1559 19.2672 13.8749 17.5264 11.1859 17.5264C9.26674 17.5264 7.55534 18.4136 6.43714 19.7994C6.22339 19.7513 6.00502 19.7268 5.78594 19.7264C4.12914 19.7264 2.78594 21.0696 2.78594 22.7264C2.78594 22.771 2.79074 22.8144 2.79254 22.8584C1.51614 23.242 0.585938 24.425 0.585938 25.8264C0.585938 27.5384 1.97394 28.9264 3.68594 28.9264C3.90596 28.9261 4.12532 28.9024 4.34034 28.8558C4.77994 30.2864 6.11134 31.3264 7.68594 31.3264C8.79534 31.3264 9.78254 30.8086 10.4237 30.0032C10.8819 30.2157 11.3809 30.326 11.8859 30.3264C12.8213 30.3264 13.6687 29.9572 14.2967 29.3596C15.2841 30.2415 16.5621 30.7282 17.8859 30.7264C19.178 30.7279 20.4273 30.2641 21.4053 29.4198C21.9557 29.9194 22.6841 30.2264 23.4859 30.2264C25.1979 30.2264 26.5859 28.8384 26.5859 27.1264C26.5859 25.4144 25.1979 24.0264 23.4859 24.0264Z" fill="#FCFEFF"/>
<path id="Vector_9" d="M26.4675 26.2862C25.7956 25.7925 24.9836 25.5263 24.1497 25.5264C23.5017 25.5258 22.8637 25.6858 22.2927 25.9922C21.3433 24.6498 19.7799 23.7726 18.0105 23.7726C17.6391 23.7726 17.2777 23.8132 16.9281 23.8868C16.9085 24.3028 16.7933 24.7112 16.5637 25.0714C16.5487 24.648 16.5265 24.259 16.4565 23.8834C16.4132 23.6294 16.3477 23.3795 16.2609 23.1368C15.0925 21.213 12.9797 19.9266 10.5643 19.9266C9.35544 19.9251 8.16916 20.2543 7.13394 20.8786C6.50034 21.4944 6.04394 22.29 5.77774 23.1826C5.56374 22.4116 5.70754 21.6488 6.07414 21.0028C5.78068 20.953 5.4836 20.9275 5.18594 20.9266C4.45814 20.9266 3.76434 21.0714 3.13074 21.3326C2.90409 21.7623 2.78573 22.2408 2.78594 22.7266C2.78594 22.7712 2.79074 22.8146 2.79254 22.8586C1.51614 23.2422 0.585938 24.4252 0.585938 25.8266C0.585938 27.5386 1.97394 28.9266 3.68594 28.9266C3.90596 28.9263 4.12532 28.9027 4.34034 28.856C4.77994 30.2866 6.11134 31.3266 7.68594 31.3266C8.79534 31.3266 9.78254 30.8088 10.4237 30.0034C10.8819 30.216 11.3809 30.3263 11.8859 30.3266C12.8213 30.3266 13.6687 29.9574 14.2967 29.3598C15.2841 30.2418 16.5621 30.7284 17.8859 30.7266C19.178 30.7282 20.4273 30.2644 21.4053 29.42C21.9557 29.9196 22.6841 30.2266 23.4859 30.2266C25.1979 30.2266 26.5859 28.8386 26.5859 27.1266C26.5859 26.835 26.5427 26.554 26.4675 26.2864V26.2862Z" fill="url(#paint6_linear_8034_245494)"/>
<path id="Vector_10" d="M33.8115 27.8306C33.1651 27.7598 32.5559 27.8242 32.0499 27.9882C32.1417 27.5648 32.0363 27.1352 31.7285 26.8544C31.4979 26.6442 31.1945 26.5561 30.8833 26.5791C30.7653 25.7753 30.1299 25.0252 29.2001 24.7094C28.0169 24.3076 26.7831 24.7531 26.3425 25.7063C25.7373 25.5455 25.0233 25.5595 24.3105 25.7903C23.4503 26.0687 22.7735 26.6032 22.3949 27.2224C21.9664 26.9953 21.4966 26.8563 21.0135 26.8138C19.5853 26.6858 18.3047 27.381 17.7999 28.4522C17.2977 28.1796 16.5981 28.0846 15.8683 28.2388C14.5859 28.5096 13.6977 29.4448 13.8841 30.3276C14.0705 31.2104 15.2613 31.7064 16.5435 31.4356C16.5567 31.4328 16.5691 31.4291 16.5821 31.4261C16.8765 31.5709 17.2227 31.6706 17.5995 31.7042C18.0027 31.7404 18.3849 31.6959 18.7159 31.5911C19.2101 31.9589 19.8323 32.2072 20.5249 32.2694C21.4181 32.3494 22.2527 32.1066 22.8769 31.652C23.6335 32.2826 24.7779 32.5202 25.9105 32.183C26.3798 32.0442 26.8158 31.8109 27.1917 31.4974C27.8851 31.782 28.6503 31.842 29.3797 31.6692C29.7703 31.9029 30.2123 32.0369 30.6669 32.0594C31.5217 32.105 32.2947 31.7741 32.7687 31.2335C32.9844 31.289 33.2039 31.3292 33.4253 31.3538C35.0285 31.5296 36.4145 30.8834 36.5213 29.9106C36.6279 28.9378 35.4149 28.0067 33.8117 27.8309L33.8115 27.8306Z" fill="#F7FCFF"/>
<path id="Vector_11" d="M36.3767 29.218C35.9025 29.0072 35.3537 28.8562 34.7601 28.7912C33.8231 28.6884 32.9493 28.8178 32.2767 29.1092C32.2183 28.8966 32.1011 28.7047 31.9387 28.5556C31.5959 28.2428 31.1069 28.1734 30.6473 28.3242C30.3211 27.5858 29.6431 26.951 28.7413 26.6448C27.5161 26.2288 26.2491 26.544 25.5407 27.344C24.9985 27.2514 24.3889 27.2902 23.7803 27.4872C23.3428 27.6273 22.9343 27.8454 22.5745 28.131C22.1417 28.5774 21.8177 29.1348 21.6163 29.7556C21.4987 29.2394 21.5817 28.7348 21.7981 28.2904C21.468 28.1575 21.1203 28.0736 20.7659 28.0414C19.5267 27.9304 18.4009 28.4404 17.7941 29.2764C17.0253 28.7922 15.8927 28.6082 14.7063 28.8588C14.6243 28.876 14.5451 28.8978 14.4653 28.9186C14.0135 29.3202 13.7795 29.832 13.8841 30.3272C14.0705 31.21 15.2613 31.706 16.5435 31.4352C16.5567 31.4324 16.5691 31.4286 16.5821 31.4256C16.8765 31.5704 17.2227 31.6702 17.5995 31.7038C18.0027 31.74 18.3849 31.6954 18.7159 31.5906C19.2101 31.9584 19.8323 32.2068 20.5249 32.269C21.4181 32.349 22.2527 32.1062 22.8769 31.6516C23.6335 32.2822 24.7779 32.5198 25.9105 32.1826C26.3798 32.0438 26.8158 31.8105 27.1917 31.497C27.8851 31.7815 28.6503 31.8416 29.3797 31.6688C29.7703 31.9025 30.2123 32.0365 30.6669 32.059C31.5217 32.1046 32.2947 31.7736 32.7687 31.233C32.9844 31.2886 33.2038 31.3288 33.4253 31.3534C35.0285 31.5292 36.4145 30.883 36.5213 29.9102C36.5473 29.6734 36.4939 29.4394 36.3769 29.2178L36.3767 29.218Z" fill="url(#paint7_linear_8034_245494)"/>
</g>
<defs>
<radialGradient id="paint0_radial_8034_245494" cx="0" cy="0" r="1" gradientUnits="userSpaceOnUse" gradientTransform="translate(19.9364 29.8478) scale(19.2176 7.50153)">
<stop offset="0.2" stop-color="#4898B3" stop-opacity="0.6"/>
<stop offset="0.328" stop-color="#4898B3" stop-opacity="0.55"/>
<stop offset="0.537" stop-color="#4898B3" stop-opacity="0.414"/>
<stop offset="0.8" stop-color="#4898B3" stop-opacity="0.194"/>
<stop offset="1" stop-color="#4898B3" stop-opacity="0"/>
</radialGradient>
<radialGradient id="paint1_radial_8034_245494" cx="0" cy="0" r="1" gradientUnits="userSpaceOnUse" gradientTransform="translate(28.1251 16.7113) scale(11.0407 7.15488)">
<stop offset="0.2" stop-color="#7AB7CC" stop-opacity="0.3"/>
<stop offset="0.394" stop-color="#71B0C6" stop-opacity="0.256"/>
<stop offset="0.709" stop-color="#5BA0B7" stop-opacity="0.137"/>
<stop offset="1" stop-color="#428DA6" stop-opacity="0"/>
</radialGradient>
<radialGradient id="paint2_radial_8034_245494" cx="0" cy="0" r="1" gradientUnits="userSpaceOnUse" gradientTransform="translate(21.8036 16.8076) scale(14.1444)">
<stop offset="0.238" stop-color="#FFCC28"/>
<stop offset="0.311" stop-color="#FFCC28" stop-opacity="0.98"/>
<stop offset="0.399" stop-color="#FFCC28" stop-opacity="0.923"/>
<stop offset="0.495" stop-color="#FFCC28" stop-opacity="0.828"/>
<stop offset="0.596" stop-color="#FFCC28" stop-opacity="0.696"/>
<stop offset="0.7" stop-color="#FFCC28" stop-opacity="0.526"/>
<stop offset="0.809" stop-color="#FFCC28" stop-opacity="0.318"/>
<stop offset="0.918" stop-color="#FFCC28" stop-opacity="0.076"/>
<stop offset="0.95" stop-color="#FFCC28" stop-opacity="0"/>
</radialGradient>
<radialGradient id="paint3_radial_8034_245494" cx="0" cy="0" r="1" gradientUnits="userSpaceOnUse" gradientTransform="translate(21.7996 16.8076) scale(14.009)">
<stop offset="0.3" stop-color="#FF9900"/>
<stop offset="0.39" stop-color="#FF9B03" stop-opacity="0.98"/>
<stop offset="0.498" stop-color="#FFA20C" stop-opacity="0.923"/>
<stop offset="0.615" stop-color="#FFAD1A" stop-opacity="0.829"/>
<stop offset="0.738" stop-color="#FFBD2F" stop-opacity="0.697"/>
<stop offset="0.865" stop-color="#FFD149" stop-opacity="0.529"/>
<stop offset="0.95" stop-color="#FFE15E" stop-opacity="0.4"/>
<stop offset="1" stop-color="#FFE15E" stop-opacity="0"/>
</radialGradient>
<radialGradient id="paint4_radial_8034_245494" cx="0" cy="0" r="1" gradientUnits="userSpaceOnUse" gradientTransform="translate(21.8036 16.8076) scale(7.195)">
<stop stop-color="#FFFCF0"/>
<stop offset="1" stop-color="#FFCF33"/>
</radialGradient>
<linearGradient id="paint5_linear_8034_245494" x1="20.2543" y1="29.174" x2="22.5461" y2="16.1764" gradientUnits="userSpaceOnUse">
<stop offset="0.4" stop-color="#A2BDBF"/>
<stop offset="0.9" stop-color="#EEEBE2"/>
</linearGradient>
<linearGradient id="paint6_linear_8034_245494" x1="12.5691" y1="32.242" x2="14.6895" y2="20.2168" gradientUnits="userSpaceOnUse">
<stop offset="0.363" stop-color="#8FB0B3"/>
<stop offset="0.91" stop-color="#EDF1F2"/>
</linearGradient>
<linearGradient id="paint7_linear_8034_245494" x1="25.2351" y1="32.3302" x2="25.1333" y2="26.5044" gradientUnits="userSpaceOnUse">
<stop offset="0.3" stop-color="#729499"/>
<stop offset="0.947" stop-color="#EDF1F2"/>
</linearGradient>
</defs>
</svg>
