<svg preserveAspectRatio="none" overflow="visible" style="display: block;" width="159.997" height="32" viewBox="0 0 159.997 32" fill="none" xmlns="http://www.w3.org/2000/svg">
<g id="Logo">
<path id="Fill 3" fill-rule="evenodd" clip-rule="evenodd" d="M15.7018 1.76034C14.8007 1.90469 13.9067 2.07339 13.0161 2.26516C12.4268 2.39021 11.838 2.50687 11.256 2.65333C10.7192 2.78887 10.1688 2.90889 9.643 3.0759C9.13451 3.23621 8.63319 3.40155 8.13527 3.5929C7.16773 3.9689 6.24922 4.50142 5.4533 5.16613C4.96594 5.57528 4.51028 6.01926 4.12774 6.53247C3.85807 6.89966 3.63362 7.27733 3.41636 7.67935C3.21304 8.06038 3.07271 8.51149 3.0689 8.94834C3.06214 10.2329 3.87878 11.3084 4.81884 12.107C5.1274 12.3684 5.45668 12.6084 5.78976 12.838C6.77843 13.5203 7.85502 14.1191 8.94894 14.6412C10.0779 15.177 11.2137 15.6924 12.3639 16.1829C13.4506 16.6445 14.5623 17.0361 15.6841 17.4083C16.0066 17.5144 16.3329 17.6206 16.6554 17.7268C17.672 18.0646 18.7101 18.3764 19.7195 18.7415C20.3472 18.9681 21.0172 19.1804 21.6444 19.4641C22.2966 19.7583 22.9734 20.052 23.5487 20.475C23.9341 20.7532 24.2672 21.1015 24.5124 21.5073C24.7546 21.9072 24.9055 22.3655 24.9156 22.8334C24.93 23.2824 24.8002 23.7192 24.558 24.099C23.927 25.0835 22.8297 25.7553 21.7708 26.2027C20.1895 26.869 18.5698 27.4452 16.9217 27.9295C15.9821 28.2043 15.0424 28.4771 14.096 28.723C13.1458 28.9698 12.1779 29.2295 11.2175 29.4695C10.2601 29.71 9.30274 29.927 8.34238 30.1343C7.79204 30.2509 7.2379 30.3672 6.69093 30.4809C6.36124 30.5468 6.03872 30.6164 5.70903 30.6878C5.02173 30.8372 4.33486 30.9853 3.64419 31.1326C2.85883 31.3055 2.07305 31.4737 1.28811 31.645C1.05986 31.6949 0.83203 31.7557 0.6042 31.8065C0.400886 31.8531 -0.359956 32.0293 0.204758 31.9958C0.989693 31.9521 3.08666 31.7696 7.56717 31.1712C9.19072 30.903 10.821 30.6722 12.448 30.4074C14.4743 30.0772 16.4872 29.6886 18.4857 29.2157C19.0572 29.0814 19.6248 28.937 20.1929 28.7822C20.5683 28.6777 20.9398 28.5698 21.308 28.4549C22.8787 27.9689 25.3996 27.1108 25.9956 26.8518C28.2747 25.856 29.6946 25.1061 30.4347 23.3206C30.687 22.6869 30.8058 21.9769 30.7289 21.2966C30.652 20.6739 30.4415 20.0436 30.1156 19.5056C29.8032 18.9886 29.3754 18.5468 28.9303 18.1393C28.0993 17.3839 27.1669 16.7734 26.171 16.2564C25.8908 16.1099 25.6029 15.9706 25.3121 15.8384C24.9507 15.6735 24.5897 15.5182 24.225 15.365C23.7097 15.151 23.1906 14.9651 22.6648 14.7855C21.2974 14.3189 19.9089 13.9013 18.5347 13.454C17.7561 13.2001 16.9851 12.9253 16.2344 12.6084C15.9153 12.4758 15.6 12.3336 15.2914 12.1838C14.927 12.0079 14.5728 11.8149 14.222 11.6076C13.7909 11.3483 13.0862 10.9009 13.2824 10.2937C13.4193 9.86022 13.8923 9.69152 14.2782 9.53625C14.6358 9.3919 15.0145 9.29118 15.3861 9.19383C16.5223 8.90302 17.6826 8.70621 18.8293 8.4624C19.1658 8.39106 19.5022 8.31804 19.8391 8.23999C20.7331 8.03101 21.655 7.87448 22.5071 7.53667C23.2401 7.24964 24.1793 6.79013 24.4532 5.98946C24.8455 4.8216 24.4004 3.55975 23.7587 2.57486C23.5275 2.22152 23.2891 1.87532 23.0435 1.52869C22.7071 1.0587 22.3351 0.616818 21.9708 0.169482C21.8059 -0.0340432 21.606 -0.0185166 21.4377 0.0335187C21.2133 0.110313 20.5995 0.825798 15.7018 1.76034" fill="#CC0000"/>
<path id="Fill 4" fill-rule="evenodd" clip-rule="evenodd" d="M90.8154 11.9891L90.8822 11.8355L90.9592 11.7033L91.0259 11.5816L91.0927 11.4771L91.1384 11.3747L91.187 11.298L91.2259 11.2233L91.2745 11.1763L91.3941 10.969L91.4643 10.8452L91.5484 10.7235L91.7268 10.4209L91.8358 10.2589L91.9483 10.0902L91.9761 10.0621L92.0142 10.0516L92.0983 10.0814L92.1406 10.1091L92.1968 10.1754L92.3088 10.3357L92.4246 10.5514L92.554 10.8452L92.6913 11.1951L92.8422 11.6198L92.8701 11.6945L92.9192 11.8183L92.9826 11.9786L93.0701 12.1855L93.0806 12.2241L93.098 12.2724L93.1263 12.3664L93.147 12.4415L93.1643 12.5178V12.5737L93.1749 12.6311L93.1643 12.6484V12.7251L93.109 12.7998L93.0701 12.8468L92.975 12.885L92.849 12.9236L92.6913 12.9425H92.5929L92.4986 12.9513L91.5657 13.026H91.3869L91.2466 13.0365H91.0995L90.9871 13.0453L90.8717 13.0365H90.6544L90.5487 13.0176L90.4828 12.9983L90.4266 12.9618L90.3944 12.9131L90.3665 12.8468L90.3805 12.7826L90.3944 12.6954L90.4439 12.6014L90.5141 12.4797L90.577 12.3752L90.6328 12.2812L90.6891 12.2048L90.7313 12.1297L90.7702 12.0726L90.7875 12.0168L90.8154 11.9891V11.9891ZM84.8242 16.446C84.8242 16.446 84.9581 16.4808 84.9581 16.4825C85.4658 16.6273 85.7152 16.968 85.3263 17.4137C85.2033 17.5568 85.1048 17.7163 85.0068 17.8715L84.9226 18.0125C84.8381 18.1518 84.7755 18.2819 84.7616 18.446C84.7616 18.446 84.7679 18.5312 84.7679 18.5329C84.7929 18.7607 84.9755 19.0046 85.0875 19.1993C85.3221 19.6 85.5681 19.9563 85.8416 20.3235C85.8834 20.3826 86.4828 19.3957 86.5217 19.3403C86.7356 19.0444 86.9841 18.7821 87.2052 18.4926C87.4816 18.1288 87.7838 17.7847 88.1837 17.553C88.5831 17.3197 89.0422 17.227 89.5021 17.1787C89.9577 17.1279 90.4134 17.1074 90.8657 17.083C91.7977 17.0343 92.7242 16.9294 93.6495 16.8396C94.0071 16.8044 94.5363 16.7158 94.8588 16.8917C95.1712 17.0604 95.4096 17.3524 95.6514 17.6034C95.9422 17.908 96.2262 18.2198 96.5001 18.5375C96.8264 18.9139 97.1168 19.3159 97.4778 19.6638C97.7056 19.8866 97.9411 20.0818 98.2002 20.2693L98.3337 20.355C98.7928 20.5828 99.1157 20.2836 99.2138 19.8203C99.3541 19.1367 98.9644 18.472 98.6457 17.8959C98.4741 17.5845 98.3059 17.2551 98.1621 16.9311C98.0358 16.6617 97.9094 16.2475 98.1342 15.9899C98.3092 15.7935 98.6698 15.783 98.9086 15.7205C99.1922 15.6453 99.4699 15.5602 99.754 15.5027C100.322 15.3864 100.886 15.2345 101.464 15.1619C101.787 15.1233 102.316 14.885 102.594 15.1665C102.958 15.5304 102.611 16.2165 102.471 16.6059C102.243 17.2551 102.012 17.9286 101.938 18.6164C101.875 19.2425 102.029 19.9164 102.429 20.4158C102.723 20.7834 103.218 21.0998 103.68 20.8333C104.049 20.6193 104.318 20.1619 104.483 19.7826C104.792 19.0583 105.006 18.3067 105.251 17.5614C105.472 16.89 105.7 16.2198 105.952 15.5568C106.138 15.0729 106.352 14.5975 106.538 14.1153C106.657 13.8023 106.822 13.5102 106.952 13.2018C107.057 12.9408 107.092 12.6013 107.351 12.4376C107.667 12.2412 108.056 12.8103 108.207 13.0087C108.494 13.3793 108.75 13.7675 109.013 14.1539C109.304 14.5715 109.567 15.125 110.037 15.3633C110.847 15.7775 111.573 14.8098 112.028 14.2912C112.345 13.9366 112.663 13.5711 112.989 13.2156C113.336 12.8346 113.69 12.4569 114.035 12.0759C114.258 11.8321 114.553 11.3537 114.921 11.3466C115.24 11.3415 115.314 11.6877 115.342 11.9366C115.483 13.1254 115.535 14.3348 115.713 15.5274C115.784 15.9706 115.871 16.4112 115.948 16.8518L116.061 17.4745C116.117 17.7704 116.176 18.0662 116.24 18.3608C116.376 18.9714 116.52 19.5824 116.706 20.1795C116.87 20.686 117.081 21.2337 117.502 21.5891C118.003 22.0104 118.922 21.8694 119.244 21.2811C119.311 21.1573 119.339 21.0075 119.367 20.8686C119.423 20.5761 119.395 20.2693 119.37 19.9752C119.286 18.9261 118.992 17.9009 118.974 16.8426C118.97 16.4057 119.006 15.9722 119.04 15.5375C119.114 14.5228 119.244 13.5115 119.3 12.4955C119.37 11.2526 119.482 9.93866 119.122 8.72716C119.02 8.37928 118.876 8.04315 118.69 7.73178C118.529 7.45481 118.326 7.19212 118.105 6.96258C117.87 6.71877 117.614 6.50643 117.316 6.34655C117.035 6.19506 116.67 6.07504 116.352 6.05909C115.584 6.02091 114.788 6.4439 114.188 6.88578C113.676 7.26178 113.214 7.68981 112.775 8.14764C111.997 8.96929 111.215 9.81697 110.524 10.7184C110.324 10.981 110.082 11.4561 109.68 11.4057C109.202 11.3432 108.95 10.6294 108.803 10.2534C108.659 9.89502 108.498 9.55049 108.333 9.20429C108.116 8.76535 107.895 8.3306 107.688 7.88662C107.516 7.51776 107.341 7.13463 107.074 6.82661C106.769 6.47496 106.377 6.30458 105.942 6.16191C105.634 6.06119 105.195 5.93404 104.894 6.11323C104.49 6.35326 104.568 6.95544 104.543 7.34529C104.518 7.69359 104.48 8.03098 104.448 8.37928C104.36 9.21982 104.308 10.0847 104.119 10.9097C104.035 11.2752 103.912 11.7347 103.596 11.9697C103.351 12.1506 103.042 12.1262 102.758 12.1384C102.527 12.1489 102.292 12.1418 102.057 12.1351C101.524 12.1229 100.991 12.1019 100.458 12.1158C100.002 12.1296 99.5435 12.1577 99.0844 12.1749C98.6774 12.1925 98.267 12.2324 97.8565 12.2324C97.3975 12.2584 96.8362 12.3314 96.4054 12.1296C96.0652 11.968 95.8826 11.6025 95.7317 11.2786C95.5144 10.8178 95.238 10.386 94.978 9.94705C94.7434 9.55553 94.5156 9.16233 94.2772 8.77416C93.9335 8.21562 93.5933 7.65876 93.2424 7.10525C93.0146 6.73975 92.7762 6.37592 92.5311 6.02091C92.3311 5.73177 92.0784 5.34403 91.7275 5.22359C91.4059 5.11239 91.0901 5.32305 91.0233 5.63987C90.9781 5.84508 91.0267 6.05574 90.9844 6.26094C90.9392 6.47873 90.8517 6.69275 90.76 6.89627C90.5816 7.3071 90.3432 7.68981 90.1014 8.06581C89.2882 9.32263 88.6812 10.7167 87.9554 12.0238C87.8185 12.2672 87.6748 12.5056 87.5378 12.7494C87.3523 13.0906 87.2301 13.3722 86.8231 13.4804C86.4579 13.5761 86.066 13.5274 85.6979 13.6176C85.2422 13.7309 85.1082 14.1208 85.0313 14.5438C84.9679 14.9022 84.9581 15.2677 84.9019 15.6281C84.8597 15.8891 84.7963 16.1829 84.8242 16.446V16.446Z" fill="#1A1919"/>
<path id="Fill 5" fill-rule="evenodd" clip-rule="evenodd" d="M35.1215 23.8048C34.7462 23.8173 34.3746 23.887 34.0031 23.8656C33.5682 23.8413 33.2947 23.5786 33.1336 23.1959C32.9443 22.7376 32.8356 22.2194 32.7198 21.7389C32.6146 21.2844 32.5305 20.8375 32.5795 20.3729C32.6112 20.1203 32.6497 19.9361 32.8568 19.7615C33.1827 19.4938 33.6383 19.6679 33.982 19.4766C34.2905 19.3045 34.3924 18.9298 34.4203 18.6046C34.4693 18.0578 34.4097 17.4716 34.3818 16.9235C34.2977 15.5135 34.3924 14.0758 34.2132 12.6747C34.1747 12.3511 34.0699 11.9806 33.7085 11.8845C32.9933 11.6948 32.9861 10.9902 32.9409 10.3826C32.9126 10.0015 32.9092 9.55253 33.0635 9.19416C33.2702 8.70318 33.8209 8.44888 34.3045 8.30117C34.7745 8.15681 35.2513 8.02463 35.7281 7.8958C36.2121 7.76529 36.7134 7.69395 37.2075 7.61002C37.716 7.52484 38.2245 7.45182 38.7364 7.37335C39.2343 7.29529 39.7322 7.22731 40.2369 7.17318C40.707 7.12114 41.18 7.06365 41.6534 7.03596C42.2075 7.0028 42.7684 6.97007 43.3222 6.94909C43.8205 6.92811 44.318 6.9386 44.8126 6.94196C45.3071 6.94531 45.7978 6.9663 46.2886 6.98182C46.7933 6.99945 47.3056 7.04141 47.8031 7.10897C48.5288 7.20675 49.2195 7.3318 49.8438 7.73717C50.4922 8.16353 50.9238 9.03554 50.2822 9.67969C49.6333 10.3322 48.5884 10.2244 47.7473 10.2244C47.0562 10.2227 46.3693 10.2416 45.6786 10.2609C45.0159 10.2819 44.3531 10.3498 43.6869 10.3914C43.0698 10.4296 42.4561 10.4732 41.836 10.5202C41.1977 10.5689 40.5561 10.6297 39.9178 10.6927C39.4093 10.7414 38.8979 10.7901 38.3961 10.8824C37.9755 10.9587 37.481 11.0339 37.1585 11.3402C36.9201 11.5681 36.9095 11.9491 37.0076 12.2466C37.2008 12.8211 38.0774 12.6768 38.5398 12.6646C39.5919 12.6331 40.633 12.4611 41.6813 12.3914C42.1652 12.3582 42.6458 12.3406 43.126 12.3129C43.7081 12.2781 44.2867 12.2588 44.8722 12.2869C45.384 12.3112 45.8853 12.3704 46.3867 12.4728C47.0004 12.6 47.5719 12.835 48.1362 13.0943C48.8585 13.3431 48.7431 14.25 48.6235 14.8329C48.5605 15.1392 48.4591 15.4086 48.1818 15.5798C47.5507 15.9663 46.6568 15.8685 45.9517 15.8874C45.2576 15.9071 44.5602 15.9676 43.8695 16.0305C42.779 16.1333 41.6885 16.2408 40.6017 16.375C39.9356 16.4585 39.2694 16.5735 38.6032 16.6432C38.1543 16.6914 37.5651 16.6465 37.1974 16.9617L37.1306 17.0188L37.0816 17.0469L37.0465 17.1128L37.0042 17.2C36.9552 17.4783 36.6677 18.3956 36.9552 18.6151L37.0148 18.6428H37.1095C37.4742 18.6444 37.8352 18.6239 38.2 18.6075C38.7537 18.5836 39.3079 18.5609 39.8654 18.516C40.9314 18.4288 41.997 18.3419 43.063 18.2496C43.7571 18.1883 44.4723 18.1505 45.1735 18.0872C46.2252 17.994 47.2773 17.9382 48.3293 17.8962C48.9672 17.8702 49.5809 17.8807 50.1803 17.6176C50.8744 17.3096 51.4496 16.7703 52.1297 16.4204C52.9886 15.9802 53.8687 15.5865 54.7382 15.1707C55.8042 14.6608 56.8453 14.0742 57.929 13.6008C58.7634 13.237 59.6012 12.8769 60.436 12.5148C60.8393 12.3406 61.2527 12.177 61.6382 11.9579C61.9049 11.8031 62.5955 11.4669 62.4201 11.0511C62.3292 10.8354 62.0524 10.8039 61.8487 10.7796C61.0493 10.6839 59.0441 10.8316 57.8166 11.0196C55.8287 11.3645 55.5518 11.6235 54.9977 11.0792C54.5771 10.6318 54.6819 9.99987 54.7453 9.44637C54.8083 8.87733 55.0822 8.01581 55.275 7.8018C55.8498 7.05316 57.7464 6.9663 58.6303 6.90167C59.0859 6.86894 59.5488 6.85509 60.0083 6.85131C60.6533 6.84628 61.2949 6.88992 61.9361 6.88992C62.4941 6.91426 63.0478 6.94909 63.602 7.00448C64.233 7.06743 64.9237 7.08296 65.5375 7.27767C65.7374 7.34229 65.9369 7.4086 66.1263 7.49714C66.7607 7.79131 67.3394 8.17612 67.7705 8.72584C68.0267 9.05149 68.1949 9.42538 68.279 9.8274C68.3213 10.0209 68.3492 10.2105 68.3213 10.4069C68.3002 10.5517 68.2579 10.8404 68.167 10.9554L68.1286 11.0041C68.0406 11.1954 67.872 11.3679 67.7181 11.5055C66.9679 12.1598 65.8739 12.3981 64.9694 12.7687C64.5205 12.9533 64.0788 13.1656 63.6371 13.3658C62.3956 13.9281 61.1652 14.5127 59.8992 15.023C58.8581 15.4455 57.82 15.8794 56.8212 16.3956C56.5473 16.5387 56.1478 16.7422 55.983 17.0188C55.8181 17.3113 56.1757 17.3096 56.4069 17.3146C56.6597 17.3234 56.9154 17.3079 57.1716 17.289C57.9392 17.2273 58.7072 17.1547 59.4786 17.0708C60.264 16.9839 61.0561 16.9143 61.8419 16.8152C62.5816 16.7212 63.3213 16.626 64.0576 16.5454C64.8641 16.4602 65.6495 16.4308 66.456 16.4292C67.2658 16.4292 68.0546 16.4392 68.8543 16.5718L68.9735 16.5907L69.1836 16.6012C69.5205 16.6012 69.8743 16.5563 70.0463 16.2202C70.3265 15.6768 70.488 15.0213 70.6913 14.4451C70.9509 13.6982 71.2205 12.9533 71.4906 12.2101C71.5257 12.1073 71.5646 12.0049 71.6031 11.9021C71.9112 11.0616 72.213 10.2172 72.5495 9.3872C72.6826 9.05149 72.823 8.71913 72.9316 8.37251C73.0127 8.11317 73.0508 7.85048 73.1734 7.60331C73.3771 7.20675 73.7453 6.95077 74.1587 7.23948C74.4922 7.4728 74.72 7.87817 74.9127 8.22983C75.1122 8.60037 75.2847 8.96966 75.379 9.38216C75.4736 9.79802 75.3722 10.1669 75.2458 10.5655C75.116 10.9747 74.9478 11.3801 74.8392 11.7959C74.6042 12.6889 75.4876 13.4094 76.1677 13.8165C76.7814 14.1854 77.4861 14.4346 78.1455 14.7112C78.6396 14.918 79.1341 15.1358 79.6562 15.2382C79.9685 15.2978 80.3646 15.3603 80.6414 15.1635C81.0899 14.84 81.2269 14.2084 81.3782 13.7103C81.5604 13.0977 81.6965 12.4694 81.8339 11.8446C81.9526 11.3276 82.0334 10.8022 82.0896 10.2747C82.1352 9.85887 82.1737 9.44133 82.1986 9.02547C82.2257 8.48371 82.1847 7.96168 82.1771 7.42244C82.1771 7.07414 82.2401 6.62345 82.4861 6.35194C82.8014 5.99315 83.3488 6.17779 83.6146 6.51896C83.6218 6.52609 83.7127 6.64275 83.7127 6.64275C83.8746 6.91426 83.9934 7.21179 84.0843 7.51435C84.2419 8.05736 84.3303 8.61632 84.3865 9.17654C84.4351 9.6394 84.4664 10.1023 84.4845 10.5672C84.5399 12.1702 84.4283 13.7766 84.2106 15.3637C84.0914 16.2202 83.9025 17.0536 83.7203 17.8962C83.6146 18.3595 83.5343 18.8358 83.3344 19.271C83.2008 19.5563 83.0153 19.8329 82.8048 20.0666C82.7029 20.1799 82.5909 20.2752 82.4645 20.3553C82.0262 20.6289 81.4547 20.6184 80.9572 20.5693C80.2631 20.5051 79.597 20.3272 78.9448 20.0888C78.531 19.9411 78.1315 19.7808 77.735 19.5945C77.3318 19.4036 76.9252 19.2118 76.5359 18.9923C76.1436 18.7716 75.7611 18.5278 75.3963 18.2684C75.0459 18.0234 74.7027 17.7502 74.4042 17.4455C74.1413 17.1774 73.9452 16.8324 73.6996 16.5488C73.4363 16.2496 73.2334 16.1488 73.0613 16.5614C72.9565 16.8291 72.9003 17.1111 72.8369 17.3931C72.7317 17.8857 72.5846 18.3734 72.4307 18.8551C72.2832 19.3301 71.6483 20.6495 70.9576 20.0351C70.7336 19.8366 70.5721 19.5807 70.2352 19.5844C69.892 19.5895 69.5657 19.7288 69.2326 19.8018C68.8822 19.8803 68.5174 19.9218 68.1598 19.9932C67.4831 20.1304 66.8064 20.2873 66.1335 20.4216C65.6846 20.5085 65.2357 20.571 64.7902 20.6478C64.3594 20.7208 63.9245 20.7762 63.4895 20.8413C63.0411 20.9071 62.5955 20.9785 62.15 21.0305C61.4492 21.1174 60.7513 21.2009 60.0535 21.2743C59.4926 21.3478 58.9355 21.4032 58.3775 21.4674C57.9113 21.5181 57.4484 21.5664 56.9822 21.6121C56.2002 21.6868 55.4255 21.7548 54.6405 21.7804C53.4587 21.8224 52.235 21.892 51.0709 21.6591C50.8114 21.6084 50.4259 21.5773 50.2293 21.3855C50.0894 21.25 50.2014 21.0183 50.0962 20.8585L50.0788 20.8303L50.0332 20.7817L49.9909 20.7523L49.9453 20.733H49.851L49.8016 20.7523L49.7458 20.7716L49.6963 20.8098L49.5983 20.8773L49.5353 20.952L49.4862 21.0381L49.4579 21.1333C49.2056 21.9428 48.35 22.2471 47.5719 22.3465L35.1215 23.8048" fill="#1A1919"/>
<path id="Fill 6" fill-rule="evenodd" clip-rule="evenodd" d="M151.337 17.5251C149.703 17.6422 148.163 17.9166 146.504 17.7601C145.969 17.7081 145.047 17.664 144.594 17.3702C143.269 16.5037 147.911 14.9598 148.483 14.758C150.092 14.1873 153.335 13.2578 153.335 13.2578C153.335 13.2578 156.382 12.5058 156.473 10.8767C156.585 8.89982 154.537 8.00515 152.97 7.51082C152.318 7.36646 151.677 7.25694 151.014 7.19063C150.569 7.14531 150.116 7.12643 149.667 7.1109C148.823 7.08111 147.999 7.16294 147.157 7.26365C146.295 7.36646 144.461 7.42018 144.194 8.49613C144.061 9.04418 143.437 10.1738 143.959 10.6699C144.513 11.1969 145.415 10.9779 146.095 10.9116C147.035 10.8193 147.964 10.6455 148.899 10.5532C149.591 10.4852 150.491 10.3337 151.059 10.8369C151.757 11.4617 149.906 12.0534 149.538 12.2099C148.139 12.8016 146.677 13.2263 145.274 13.8062C143.959 14.3493 142.641 14.8713 141.358 15.4802C140.769 15.7584 140.219 16.1017 139.665 16.4357L139.398 16.2544L137.782 16.4252C137.782 16.4252 136.165 16.5578 136.162 16.5578C135.079 16.6464 133.981 16.6774 132.894 16.7282C132.351 16.7471 131.499 16.7685 131.071 16.3661C130.135 15.484 130.657 14.262 131.275 13.4093C131.951 12.4814 132.901 11.7941 133.876 11.2095C134.531 10.818 135.257 10.4974 135.993 10.2779C136.491 10.1285 137.007 10.0047 137.526 9.92836C137.599 10.071 137.683 10.2137 137.764 10.353C137.806 10.4332 139.016 9.92836 139.131 9.86919C139.503 9.67784 140.022 9.29303 140.033 8.82849C140.05 8.26281 139.559 7.69882 139.114 7.41682C138.616 7.10209 138.051 6.99718 137.466 6.99214C136.832 6.98333 136.193 7.02194 135.569 7.10377C135.127 7.16294 134.693 7.26029 134.261 7.38367C133.546 7.59097 132.866 7.87129 132.218 8.23134C131.355 8.71015 130.513 9.35052 129.837 10.0643C129.514 10.4034 129.223 10.7811 128.981 11.1814C128.669 11.6929 128.441 12.2586 128.259 12.8281C127.765 14.403 127.915 16.3644 128.631 17.8507C129.121 18.8721 129.883 19.7584 130.857 20.3535C132.084 21.1034 133.637 21.3509 135.043 21.0828C135.633 20.9729 136.155 20.8197 136.698 20.6006C137.273 20.369 137.835 20.1986 138.371 19.8902C138.476 19.8344 139.623 19.1822 139.689 19.2691C139.868 19.5008 139.973 19.7844 140.166 20.0056C140.352 20.2196 140.587 20.4143 140.811 20.5813C141.285 20.9342 141.821 21.0736 142.399 21.142C143.847 21.314 145.317 21.4013 146.775 21.4206C147.939 21.4361 149.117 21.3572 150.274 21.2498C151.025 21.1802 151.775 21.0828 152.521 20.9922C154.422 20.7605 155.993 20.3409 158.051 19.4592C159.022 19.0047 159.625 18.4214 159.997 17.9901C159.779 17.8545 159.527 17.7358 159.288 17.6405C157.791 17.0429 156.083 17.0186 154.492 17.2209C153.759 17.3132 153.027 17.3841 152.294 17.4487C151.975 17.4781 151.655 17.5029 151.337 17.5251" fill="#1A1919"/>
<path id="Fill 7" fill-rule="evenodd" clip-rule="evenodd" d="M125.998 19.2131C126.015 18.937 125.984 18.6596 125.903 18.446C125.689 17.8888 125.096 17.3231 124.508 17.2152C123.975 17.12 123.333 17.2207 122.898 17.5598C122.663 17.7444 122.408 18.0419 122.285 18.3189C122.015 18.9261 122.043 19.8279 122.439 20.3655C123.109 21.2757 124.525 21.2757 125.314 20.5375C125.692 20.1859 125.959 19.7373 125.998 19.2131" fill="#1A1919"/>
</g>
</svg>
