<?xml version="1.0" encoding="UTF-8"?>
<svg id="Vrstva_1" xmlns="http://www.w3.org/2000/svg" xmlns:xlink="http://www.w3.org/1999/xlink" viewBox="0 0 200 200">
  <defs>
    <style>
      .cls-1 {
        fill: url(#Nepojmenovaný_přechod_3);
      }

      .cls-2 {
        fill: #f0f4f5;
      }

      .cls-3 {
        fill: url(#Nepojmenovaný_přechod_3-2);
      }

      .cls-4 {
        fill: #edf1f2;
      }

      .cls-5 {
        fill: url(#Nepojmenovaný_přechod_3-7);
      }

      .cls-6 {
        fill: #f5f9fa;
      }

      .cls-7 {
        fill: url(#Nepojmenovaný_přechod_168);
      }

      .cls-8 {
        fill: url(#Nepojmenovaný_přechod_3-4);
      }

      .cls-9 {
        fill: url(#Nepojmenovaný_přechod_3-3);
      }

      .cls-10 {
        fill: url(#Nepojmenovaný_přechod_78);
      }

      .cls-11 {
        fill: url(#Nepojmenovaný_přechod_3-6);
      }

      .cls-12 {
        fill: url(#Nepojmenovaný_přechod_29);
      }

      .cls-13 {
        fill: url(#Nepojmenovaný_přechod_110);
      }

      .cls-14 {
        fill: url(#Nepojmenovaný_přechod_3-5);
      }

      .cls-15 {
        fill: url(#Nepojmenovaný_přechod_30);
      }
    </style>
    <radialGradient id="Nepojmenovaný_přechod_110" data-name="Nepojmenovaný přechod 110" cx="127.018" cy="125.091" fx="127.018" fy="125.091" r="102.794" gradientTransform="translate(-21.487 -6.545) scale(.961 .603)" gradientUnits="userSpaceOnUse">
      <stop offset=".2" stop-color="#4d8599" stop-opacity=".5"/>
      <stop offset=".365" stop-color="#4d8599" stop-opacity=".441"/>
      <stop offset=".633" stop-color="#4d8599" stop-opacity=".283"/>
      <stop offset=".97" stop-color="#4d8599" stop-opacity=".025"/>
      <stop offset="1" stop-color="#4d8599" stop-opacity="0"/>
    </radialGradient>
    <radialGradient id="Nepojmenovaný_přechod_29" data-name="Nepojmenovaný přechod 29" cx="126.695" cy="182.323" fx="126.695" fy="182.323" r="102.795" gradientTransform="translate(-21.176 69.924) scale(.961 .375)" gradientUnits="userSpaceOnUse">
      <stop offset=".2" stop-color="#406f80" stop-opacity=".6"/>
      <stop offset=".364" stop-color="#406f80" stop-opacity=".53"/>
      <stop offset=".632" stop-color="#406f80" stop-opacity=".34"/>
      <stop offset=".968" stop-color="#406f80" stop-opacity=".032"/>
      <stop offset="1" stop-color="#406f80" stop-opacity="0"/>
    </radialGradient>
    <linearGradient id="Nepojmenovaný_přechod_78" data-name="Nepojmenovaný přechod 78" x1="97.138" y1="124.885" x2="105.756" y2="26.376" gradientUnits="userSpaceOnUse">
      <stop offset=".3" stop-color="#778a8c"/>
      <stop offset=".9" stop-color="#e1e5e6"/>
    </linearGradient>
    <linearGradient id="Nepojmenovaný_přechod_168" data-name="Nepojmenovaný přechod 168" x1="97.369" y1="142.043" x2="104.197" y2="63.998" gradientUnits="userSpaceOnUse">
      <stop offset=".35" stop-color="#7a9699"/>
      <stop offset=".8" stop-color="#e1e5e6"/>
    </linearGradient>
    <linearGradient id="Nepojmenovaný_přechod_30" data-name="Nepojmenovaný přechod 30" x1="95.033" y1="146.388" x2="95.033" y2="100.825" gradientUnits="userSpaceOnUse">
      <stop offset=".3" stop-color="#607c80"/>
      <stop offset=".8" stop-color="#e1e6e6"/>
    </linearGradient>
    <linearGradient id="Nepojmenovaný_přechod_3" data-name="Nepojmenovaný přechod 3" x1="56.131" y1="175.608" x2="64.434" y2="175.608" gradientUnits="userSpaceOnUse">
      <stop offset=".1" stop-color="#89dae6"/>
      <stop offset="1" stop-color="#5e7c8c"/>
    </linearGradient>
    <linearGradient id="Nepojmenovaný_přechod_3-2" data-name="Nepojmenovaný přechod 3" x1="86.492" y1="163.125" x2="94.795" y2="163.125" xlink:href="#Nepojmenovaný_přechod_3"/>
    <linearGradient id="Nepojmenovaný_přechod_3-3" data-name="Nepojmenovaný přechod 3" x1="119.395" y1="174.329" x2="125.82" y2="174.329" xlink:href="#Nepojmenovaný_přechod_3"/>
    <linearGradient id="Nepojmenovaný_přechod_3-4" data-name="Nepojmenovaný přechod 3" x1="107.395" y1="155.329" x2="113.82" y2="155.329" xlink:href="#Nepojmenovaný_přechod_3"/>
    <linearGradient id="Nepojmenovaný_přechod_3-5" data-name="Nepojmenovaný přechod 3" x1="134.872" y1="152.914" x2="141.298" y2="152.914" xlink:href="#Nepojmenovaný_přechod_3"/>
    <linearGradient id="Nepojmenovaný_přechod_3-6" data-name="Nepojmenovaný přechod 3" x1="74.217" y1="144.234" x2="80.643" y2="144.234" xlink:href="#Nepojmenovaný_přechod_3"/>
    <linearGradient id="Nepojmenovaný_přechod_3-7" data-name="Nepojmenovaný přechod 3" x1="43.325" y1="152.686" x2="49.751" y2="152.686" xlink:href="#Nepojmenovaný_přechod_3"/>
  </defs>
  <ellipse class="cls-13" cx="100.603" cy="68.83" rx="99" ry="61.921"/>
  <ellipse class="cls-12" cx="100.603" cy="138.33" rx="99" ry="38.561"/>
  <path class="cls-4" d="M179.104,68.99c.281-1.014.443-2.077.443-3.18,0-6.578-5.333-11.91-11.91-11.91-1.789,0-3.48.406-5.003,1.113-.71-12.793-11.306-22.948-24.276-22.948-5.734,0-11.001,1.99-15.159,5.31-3.599-8.93-12.339-15.235-22.557-15.235-10.752,0-19.868,6.982-23.078,16.657-1.648-.502-3.396-.776-5.208-.776-9.54,0-17.31,7.483-17.816,16.897-11.604.329-21.695,6.688-27.249,16.06-1.006-.13-2.03-.204-3.072-.204-13.156,0-23.82,10.665-23.82,23.82s10.665,23.82,23.82,23.82c4.707,0,9.091-1.371,12.785-3.727,5.261,3.602,11.622,5.712,18.479,5.712,10.076,0,19.086-4.554,25.095-11.712,4.058,5.591,10.642,9.23,18.08,9.23,5.93,0,11.317-2.316,15.315-6.087,4.443,2.904,9.749,4.598,15.453,4.598,6.14,0,11.818-1.962,16.454-5.285,3.139,1.478,6.644,2.308,10.343,2.308,2.762,0,5.414-.467,7.888-1.315,3.498,2.094,7.589,3.301,11.962,3.301,12.881,0,23.324-10.443,23.324-23.324,0-11.854-8.844-21.635-20.293-23.122Z"/>
  <path class="cls-10" d="M179.104,68.99c.281-1.014.443-2.077.443-3.18,0-6.578-5.333-11.91-11.91-11.91-1.789,0-3.48.406-5.003,1.113-.094-1.699-.368-3.349-.793-4.938-6.479-5.06-14.624-8.085-23.483-8.085-3.784,0-7.436.56-10.887,1.586,1.1,2.472,1.577,5.227,1.169,8.096-1.511-5.29-4.66-9.913-9.005-12.96-3.972-2.331-8.596-3.67-13.534-3.67-11.096,0-20.605,6.75-24.676,16.362-.86,3.594-1.224,7.333-1.043,11.107-1.725-3.607-2.329-7.547-2.035-11.46-.664-.077-1.336-.129-2.021-.129-6.982,0-13.013,4.015-15.952,9.853-.156-.002-.311-.012-.467-.012-12.914,0-24.234,6.761-30.659,16.925-.717,2.773-.938,5.706-.649,8.646-1.34-2.353-1.932-4.9-1.91-7.429-1.735-.361-3.53-.556-5.372-.556-7.871,0-14.933,3.452-19.766,8.92-.745,2.308-1.153,4.769-1.153,7.325,0,13.156,10.665,23.82,23.821,23.82,4.707,0,9.091-1.371,12.785-3.727,5.261,3.602,11.622,5.712,18.479,5.712,10.076,0,19.086-4.554,25.094-11.712,4.058,5.591,10.642,9.23,18.08,9.23,5.93,0,11.316-2.316,15.315-6.087,4.443,2.904,9.749,4.598,15.453,4.598,6.14,0,11.818-1.962,16.454-5.285,3.139,1.478,6.644,2.308,10.343,2.308,2.762,0,5.414-.467,7.888-1.315,3.498,2.094,7.589,3.301,11.962,3.301,12.881,0,23.324-10.443,23.324-23.324,0-11.854-8.844-21.635-20.293-23.122Z"/>
  <path class="cls-2" d="M173.868,84.836c-.769-.044-1.531-.048-2.287-.027-.554-.99-1.174-1.939-1.855-2.84-2.39-8.346-9.818-14.672-18.976-15.199-3.642-.21-7.119.523-10.198,1.984-3.027-4.5-8.031-7.593-13.863-7.929-9.904-.57-18.395,6.996-18.965,16.9-.032.547-.029,1.088-.012,1.625-1.333-.404-2.727-.676-4.179-.76-4.916-.283-9.481,1.442-12.905,4.46-5.15-4.063-11.549-6.649-18.596-7.054-14.941-.86-28.132,8.316-33.026,21.679-1.623-.915-3.466-1.495-5.451-1.609-6.386-.368-11.922,4.09-13.091,10.207-10.596.052-19.124,4.796-19.76,11.438-.708,7.397,8.641,14.344,20.882,15.515,5.581.534,10.795-.228,14.889-1.912,3.606,3.805,8.599,6.313,14.246,6.638,5.093.293,9.868-1.23,13.705-4,2.057.637,4.221,1.041,6.468,1.17,4.592.264,8.981-.635,12.885-2.438,4.577,4.845,10.936,8.025,18.115,8.438,9.321.537,17.81-3.708,23.083-10.606.517.252,1.042.498,1.585.726,9.102,3.827,19.567,3.18,27.538-.954,4.378,4.191,10.208,6.909,16.732,7.285,14.563.839,27.049-10.287,27.888-24.85.838-14.563-10.287-27.049-24.851-27.887Z"/>
  <path class="cls-7" d="M173.867,84.836c-.769-.044-1.531-.048-2.287-.027-.385-.687-.812-1.346-1.259-1.992-4.893-3.689-10.887-6.029-17.464-6.408-2.62-.151-5.181.028-7.654.48.931,2.199,1.37,4.622,1.131,7.164-1.487-4.452-4.146-8.362-7.665-11.199-2.582-1.741-5.646-2.838-8.981-3.03-9.904-.57-18.395,6.996-18.965,16.9-.032.547-.029,1.088-.012,1.625-1.333-.404-2.727-.676-4.179-.76-4.762-.274-9.187,1.347-12.571,4.191-5.723-4.953-13.059-8.132-21.198-8.6-10.84-.624-20.804,3.694-27.753,10.979-2.521,4.674-3.318,10.121-2.593,15.647-2.216-2.679-3.186-5.882-3.17-9.101-7.22.07-13.588,4.067-16.928,10.067-8.787-.503-16.647,1.716-21.362,5.583-.119.443-.21.893-.254,1.355-.708,7.397,8.641,14.344,20.882,15.515,5.581.534,10.795-.228,14.889-1.912,3.606,3.805,8.599,6.313,14.246,6.638,5.093.293,9.868-1.23,13.705-4,2.057.637,4.221,1.041,6.468,1.17,4.592.264,8.981-.635,12.885-2.438,4.577,4.845,10.935,8.025,18.115,8.438,9.321.537,17.811-3.708,23.083-10.606.517.252,1.041.498,1.585.726,9.102,3.827,19.567,3.18,27.538-.954,4.378,4.191,10.207,6.909,16.732,7.285,14.564.839,27.049-10.287,27.888-24.85.838-14.563-10.287-27.049-24.851-27.887Z"/>
  <path class="cls-6" d="M146.353,120.145c-.105-.006-.208-.004-.312-.009,1.017-3.279.379-6.74-1.994-8.968-2.898-2.72-7.465-2.748-11.143-.376-1.254-4.841-5.238-9.223-10.888-11.232-8.006-2.848-16.437.093-19.469,6.57-4.162-2.79-10.377-3.606-16.617-1.685-.15.046-.291.105-.44.154-2.499-3.411-6.907-5.409-11.637-4.822-6.771.84-11.623,6.649-10.838,12.974.009.073.028.142.039.214-4.956.891-9.11,3.697-11.273,7.587-2.409-.739-5.14-1.076-8.012-.898-9.15.566-16.251,6.132-15.861,12.43.39,6.299,8.124,10.946,17.273,10.38,1.706-.106,3.34-.386,4.869-.811,1.295.482,2.715.829,4.227.986,2.148.224,4.199.047,6.01-.438,2.13,1.167,4.57,1.967,7.219,2.243,3.771.393,7.352-.324,10.34-1.829,1.124.413,2.327.703,3.592.834,1.52.158,2.996.071,4.391-.204,4.261,2.968,10.212,4.02,16.148,2.345,2.586-.73,4.895-1.912,6.861-3.396,2.538,1.474,5.525,2.433,8.775,2.653,4.434.3,8.577-.814,11.858-2.888.743.156,1.502.276,2.288.329,3.78.256,7.292-.785,9.975-2.674,1.108.211,2.26.361,3.449.431,9.055.533,16.659-3.489,16.982-8.984.324-5.495-6.755-10.382-15.81-10.916Z"/>
  <path class="cls-15" d="M161.369,127.619c-3.026-1.301-6.588-2.168-10.45-2.395-2.165-.127-4.262-.046-6.245.213-.166-2.58-1.284-5.129-3.345-7.064-2.444-2.294-5.666-3.214-8.695-2.793-1.89-3.499-5.255-6.468-9.618-8.02-7.613-2.708-15.595-.171-18.968,5.653-.121.221-.24.444-.353.67-.1.201-.202.402-.292.61-1.249,2.692-1.973,5.665-2.127,8.738-1.411-3.302-1.342-6.807-.239-9.985-3.785-1.907-8.799-2.414-13.917-1.118-2.55-3.119-6.76-4.91-11.266-4.351-5.201.645-9.256,4.227-10.505,8.718-.134,2.653.229,5.363,1.067,7.993-1.657-1.622-2.723-3.583-3.273-5.675-4.92.591-9.172,3.041-11.652,6.603-3.293-1.168-7.112-1.737-11.162-1.487-4.062.251-7.793,1.292-10.922,2.866-1.058,1.626-1.613,3.424-1.498,5.29.39,6.299,8.124,10.946,17.273,10.38,1.706-.106,3.34-.386,4.869-.811,1.295.482,2.715.829,4.226.986,2.148.224,4.199.047,6.01-.438,2.13,1.167,4.57,1.967,7.219,2.243,3.771.393,7.352-.324,10.34-1.829,1.124.413,2.327.703,3.592.834,1.52.158,2.996.071,4.391-.204,4.261,2.968,10.212,4.02,16.148,2.345,2.586-.73,4.895-1.912,6.861-3.396,2.538,1.474,5.525,2.433,8.775,2.653,4.434.3,8.577-.814,11.858-2.888.743.156,1.502.276,2.288.329,3.78.256,7.292-.785,9.975-2.674,1.108.211,2.26.361,3.449.431,9.055.533,16.659-3.489,16.982-8.984.07-1.19-.225-2.347-.794-3.442Z"/>
  <g>
    <path class="cls-1" d="M64.164,188.724c-.401,2.851-2.471,4.642-4.671,4.333-2.2-.309-3.697-2.601-3.296-5.452.401-2.851,8.205-29.48,8.205-29.48,0,0,.162,27.748-.238,30.6Z"/>
    <path class="cls-3" d="M94.524,176.242c-.401,2.851-2.471,4.642-4.671,4.333-2.2-.309-3.697-2.601-3.296-5.452.401-2.851,8.206-29.48,8.206-29.48,0,0,.162,27.749-.238,30.6Z"/>
    <path class="cls-9" d="M125.611,184.48c-.31,2.207-1.912,3.592-3.614,3.353-1.703-.239-2.861-2.013-2.551-4.22.31-2.206,6.35-22.815,6.35-22.815,0,0,.126,21.475-.185,23.681Z"/>
    <path class="cls-8" d="M113.611,165.48c-.31,2.207-1.912,3.592-3.614,3.353-1.703-.239-2.861-2.013-2.551-4.22.31-2.206,6.35-22.815,6.35-22.815,0,0,.126,21.475-.185,23.681Z"/>
    <path class="cls-14" d="M141.089,163.065c-.31,2.207-1.913,3.592-3.615,3.353-1.703-.239-2.861-2.013-2.551-4.22.31-2.206,6.35-22.815,6.35-22.815,0,0,.126,21.475-.184,23.682Z"/>
    <path class="cls-11" d="M80.433,154.384c-.31,2.207-1.912,3.592-3.615,3.353-1.703-.239-2.861-2.013-2.551-4.22.31-2.206,6.35-22.815,6.35-22.815,0,0,.126,21.475-.185,23.681Z"/>
    <path class="cls-5" d="M49.541,162.837c-.31,2.207-1.912,3.592-3.615,3.353-1.703-.239-2.861-2.013-2.551-4.22.31-2.206,6.35-22.815,6.35-22.815,0,0,.126,21.475-.184,23.682Z"/>
  </g>
</svg>