<?xml version="1.0" encoding="UTF-8"?>
<svg id="Vrstva_1" xmlns="http://www.w3.org/2000/svg" xmlns:xlink="http://www.w3.org/1999/xlink" viewBox="0 0 200 200">
  <defs>
    <style>
      .cls-1 {
        fill: url(#Nepojmenovaný_přechod_118-5);
      }

      .cls-1, .cls-2, .cls-3, .cls-4, .cls-5, .cls-6, .cls-7, .cls-8, .cls-9, .cls-10, .cls-11, .cls-12 {
        stroke: #a1b1b3;
        stroke-linejoin: round;
        stroke-width: 2px;
      }

      .cls-2 {
        fill: url(#Nepojmenovaný_přechod_118-12);
      }

      .cls-13 {
        fill: #f0f4f5;
      }

      .cls-3 {
        fill: url(#Nepojmenovaný_přechod_118-3);
      }

      .cls-14 {
        fill: #edf1f2;
      }

      .cls-15 {
        fill: #f5f9fa;
      }

      .cls-16 {
        fill: url(#Nepojmenovaný_přechod_168);
      }

      .cls-4 {
        fill: url(#Nepojmenovaný_přechod_118);
      }

      .cls-5 {
        fill: url(#Nepojmenovaný_přechod_118-4);
      }

      .cls-6 {
        fill: url(#Nepojmenovaný_přechod_118-2);
      }

      .cls-7 {
        fill: url(#Nepojmenovaný_přechod_118-6);
      }

      .cls-17 {
        fill: url(#Nepojmenovaný_přechod_78);
      }

      .cls-8 {
        fill: url(#Nepojmenovaný_přechod_118-11);
      }

      .cls-9 {
        fill: url(#Nepojmenovaný_přechod_118-7);
      }

      .cls-10 {
        fill: url(#Nepojmenovaný_přechod_118-8);
      }

      .cls-11 {
        fill: url(#Nepojmenovaný_přechod_118-10);
      }

      .cls-18 {
        fill: url(#Nepojmenovaný_přechod_29);
      }

      .cls-19 {
        fill: url(#Nepojmenovaný_přechod_110);
      }

      .cls-12 {
        fill: url(#Nepojmenovaný_přechod_118-9);
      }

      .cls-20 {
        fill: url(#Nepojmenovaný_přechod_30);
      }
    </style>
    <radialGradient id="Nepojmenovaný_přechod_110" data-name="Nepojmenovaný přechod 110" cx="36.14" cy="24.567" fx="36.14" fy="24.567" r="102.794" gradientTransform="translate(65.813 54.189) scale(.961 .603)" gradientUnits="userSpaceOnUse">
      <stop offset=".2" stop-color="#4d8599" stop-opacity=".5"/>
      <stop offset=".365" stop-color="#4d8599" stop-opacity=".441"/>
      <stop offset=".633" stop-color="#4d8599" stop-opacity=".283"/>
      <stop offset=".97" stop-color="#4d8599" stop-opacity=".025"/>
      <stop offset="1" stop-color="#4d8599" stop-opacity="0"/>
    </radialGradient>
    <radialGradient id="Nepojmenovaný_přechod_29" data-name="Nepojmenovaný přechod 29" cx="35.816" cy="171.419" fx="35.816" fy="171.419" r="102.795" gradientTransform="translate(66.124 73.177) scale(.961 .375)" gradientUnits="userSpaceOnUse">
      <stop offset=".2" stop-color="#406f80" stop-opacity=".6"/>
      <stop offset=".364" stop-color="#406f80" stop-opacity=".53"/>
      <stop offset=".632" stop-color="#406f80" stop-opacity=".34"/>
      <stop offset=".968" stop-color="#406f80" stop-opacity=".032"/>
      <stop offset="1" stop-color="#406f80" stop-opacity="0"/>
    </radialGradient>
    <linearGradient id="Nepojmenovaný_přechod_78" data-name="Nepojmenovaný přechod 78" x1="96.06" y1="146.61" x2="106.125" y2="31.567" gradientUnits="userSpaceOnUse">
      <stop offset=".3" stop-color="#778a8c"/>
      <stop offset=".9" stop-color="#e1e5e6"/>
    </linearGradient>
    <linearGradient id="Nepojmenovaný_přechod_168" data-name="Nepojmenovaný přechod 168" x1="96.8" y1="144.252" x2="104.605" y2="55.042" gradientUnits="userSpaceOnUse">
      <stop offset=".35" stop-color="#7a9699"/>
      <stop offset=".8" stop-color="#e1e5e6"/>
    </linearGradient>
    <linearGradient id="Nepojmenovaný_přechod_30" data-name="Nepojmenovaný přechod 30" x1="98.691" y1="148.922" x2="102.615" y2="104.076" gradientUnits="userSpaceOnUse">
      <stop offset=".3" stop-color="#607c80"/>
      <stop offset=".8" stop-color="#e1e6e6"/>
    </linearGradient>
    <radialGradient id="Nepojmenovaný_přechod_118" data-name="Nepojmenovaný přechod 118" cx="67.121" cy="163.65" fx="67.121" fy="163.65" r="6.809" gradientUnits="userSpaceOnUse">
      <stop offset=".2" stop-color="#fff"/>
      <stop offset="1" stop-color="#a1b1b3"/>
    </radialGradient>
    <radialGradient id="Nepojmenovaný_přechod_118-2" data-name="Nepojmenovaný přechod 118" cx="90.31" cy="151.355" fx="90.31" fy="151.355" r="5.615" xlink:href="#Nepojmenovaný_přechod_118"/>
    <radialGradient id="Nepojmenovaný_přechod_118-3" data-name="Nepojmenovaný přechod 118" cx="126.591" cy="142.666" fx="126.591" fy="142.666" r="5.615" xlink:href="#Nepojmenovaný_přechod_118"/>
    <radialGradient id="Nepojmenovaný_přechod_118-4" data-name="Nepojmenovaný přechod 118" cx="72.736" cy="140.647" fx="72.736" fy="140.647" r="5.615" xlink:href="#Nepojmenovaný_přechod_118"/>
    <radialGradient id="Nepojmenovaný_přechod_118-5" data-name="Nepojmenovaný přechod 118" cx="108.146" cy="169.886" fx="108.146" fy="169.886" r="4.949" xlink:href="#Nepojmenovaný_přechod_118"/>
    <radialGradient id="Nepojmenovaný_přechod_118-6" data-name="Nepojmenovaný přechod 118" cx="57.113" cy="187.256" fx="57.113" fy="187.256" r="4.52" xlink:href="#Nepojmenovaný_přechod_118"/>
    <radialGradient id="Nepojmenovaný_přechod_118-7" data-name="Nepojmenovaný přechod 118" cx="48.749" cy="171.816" fx="48.749" fy="171.816" r="3.196" xlink:href="#Nepojmenovaný_přechod_118"/>
    <radialGradient id="Nepojmenovaný_přechod_118-8" data-name="Nepojmenovaný přechod 118" cx="46.54" cy="152.772" fx="46.54" fy="152.772" r="3.196" xlink:href="#Nepojmenovaný_přechod_118"/>
    <radialGradient id="Nepojmenovaný_přechod_118-9" data-name="Nepojmenovaný přechod 118" cx="84.696" cy="173.569" fx="84.696" fy="173.569" r="3.196" xlink:href="#Nepojmenovaný_přechod_118"/>
    <radialGradient id="Nepojmenovaný_přechod_118-10" data-name="Nepojmenovaný přechod 118" cx="107.743" cy="154.04" fx="107.743" fy="154.04" r="3.196" xlink:href="#Nepojmenovaný_přechod_118"/>
    <radialGradient id="Nepojmenovaný_přechod_118-11" data-name="Nepojmenovaný přechod 118" cx="100.458" cy="189.732" fx="100.458" fy="189.732" r="3.196" xlink:href="#Nepojmenovaný_přechod_118"/>
    <radialGradient id="Nepojmenovaný_přechod_118-12" data-name="Nepojmenovaný přechod 118" cx="126.591" cy="166.689" fx="126.591" fy="166.689" r="3.196" xlink:href="#Nepojmenovaný_přechod_118"/>
  </defs>
  <ellipse class="cls-19" cx="100.551" cy="68.992" rx="99" ry="61.921"/>
  <ellipse class="cls-18" cx="100.551" cy="137.492" rx="99" ry="38.561"/>
  <path class="cls-14" d="M179.01,72.839c.805-1.706,1.269-3.605,1.269-5.617,0-7.289-5.909-13.198-13.198-13.198-.702,0-1.386.071-2.059.176.396-1.503.628-3.073.628-4.701,0-10.176-8.249-18.426-18.426-18.426-3.34,0-6.464.902-9.166,2.456-4.897-7.202-13.156-11.934-22.523-11.934-14.263,0-25.956,10.973-27.115,24.937-.627-.061-1.26-.096-1.903-.096-10.708,0-19.394,8.617-19.527,19.294-1.565-.205-3.157-.321-4.777-.321-13.811,0-25.827,7.67-32.028,18.981-.918-.109-1.85-.171-2.792-.185-15.098-.218-27.16,12.197-26.942,27.731.218,15.533,12.633,28.301,27.73,28.519,4.66.067,9.028-1.072,12.837-3.132,5.784,3.848,12.726,6.095,20.194,6.095,12.123,0,22.86-5.914,29.5-15.01,2.14,6.899,9.769,12.01,18.881,12.01,6.898,0,12.946-2.934,16.413-7.349,4.453,3.913,10.685,6.349,17.587,6.349,9.339,0,17.456-4.453,21.59-11.001,1.595.275,3.234.426,4.907.426,15.858,0,28.712-12.855,28.712-28.712,0-12.743-8.304-23.541-19.794-27.293ZM120.921,110.638c.015-.236.05-.469.05-.707h.312c-.125.234-.247.469-.361.707Z"/>
  <path class="cls-17" d="M180.007,73.209c-1.407,2.344-3.515,4.244-6.276,5.228,1.532-1.816,2.774-3.636,3.666-5.584,1.787-3.772,2.152-7.847,1.357-11.78-2.211-4.19-6.606-7.049-11.673-7.049-.702,0-1.386.071-2.059.176.099-.373.187-.751.264-1.133-5.148-4.947-12.136-7.994-19.84-7.994-1.339,0-2.652.103-3.941.281.534,2.926.127,5.994-1.561,8.694.075-2.374-.081-4.573-.592-6.653-.255-1.104-.613-2.156-1.05-3.161-4.992-5.893-12.438-9.64-20.766-9.64-14.263,0-25.956,10.973-27.115,24.937-.627-.061-1.26-.096-1.903-.096-10.709,0-19.394,8.617-19.527,19.294-1.565-.205-3.157-.321-4.777-.321-13.079,0-24.546,6.883-30.992,17.22-6.549-2.697-14.236-2.823-21.468.27-3.908,1.672-7.272,4.113-9.991,7.059-.887,2.813-1.355,5.83-1.311,8.978.218,15.533,12.633,28.301,27.731,28.519,4.66.067,9.028-1.072,12.837-3.132,5.784,3.848,12.726,6.095,20.194,6.095,12.123,0,22.86-5.915,29.5-15.011,2.139,6.899,9.769,12.01,18.881,12.01,6.899,0,12.946-2.934,16.413-7.348,4.453,3.913,10.685,6.348,17.587,6.348,9.34,0,17.457-4.453,21.59-11.001,1.595.275,3.233.426,4.907.426,15.858,0,28.712-12.855,28.712-28.712,0-12.368-7.832-22.883-18.797-26.923ZM120.921,110.638c.015-.236.05-.469.05-.708h.311c-.125.234-.247.469-.361.708ZM122.921,123.638c.015-.236.05-.469.05-.708h.311c-.125.234-.247.469-.361.708Z"/>
  <path class="cls-13" d="M179.075,107.317c.004-.129.02-.256.02-.386,0-6.627-5.373-12-12-12-2.398,0-4.626.711-6.5,1.922-2.652-15.867-15.741-27.922-31.5-27.922-9.188,0-17.465,4.103-23.301,10.663-3.04-4.614-8.26-7.663-14.199-7.663-.816,0-1.612.077-2.397.188.581-1.945.897-4.015.897-6.162,0-11.336-8.731-20.526-19.5-20.526-5.842,0-11.069,2.718-14.644,7.002-2.436-.958-5.08-1.502-7.856-1.502-9.567,0-17.665,6.253-20.455,14.891-15.042,2.377-26.545,15.398-26.545,31.109,0,17.397,14.103,31.5,31.5,31.5,1.255,0,2.491-.082,3.708-.225,4.829,6.506,12.567,10.725,21.292,10.725,6.509,0,12.466-2.351,17.079-6.244,4.849,6.231,12.414,10.244,20.921,10.244,5.149,0,9.953-1.474,14.02-4.015,4.814,4.942,11.536,8.015,18.98,8.015,5.42,0,10.458-1.631,14.656-4.423,1.406.275,2.857.423,4.344.423,5.016,0,9.647-1.643,13.389-4.418,3.647,1.082,7.773,1.628,12.13,1.483,14.372-.479,25.775-8.269,25.471-17.399-.253-7.579-8.496-13.693-19.51-15.28Z"/>
  <path class="cls-16" d="M197.026,117.327c-3.642-1.821-8.105-2.997-12.98-3.316-4.2,1.034-7.969,3.526-10.885,6.979.679-3.375,2.742-6.034,5.435-7.802-3.198-5.528-9.156-9.257-16.002-9.257-1.544,0-3.036.21-4.47.567-3.495-14.69-16.061-25.567-31.03-25.567-7.094,0-13.646,2.448-18.951,6.581-1.301,1.834-2.224,3.965-2.812,6.296-1.031-2.215-.932-4.569-.092-6.67-2.984-2.608-6.87-4.207-11.146-4.207-2.984,0-5.785.774-8.222,2.124.777-2.215,1.222-4.599,1.222-7.098,0-11.336-8.731-20.526-19.5-20.526-3.842,0-7.414,1.181-10.429,3.205-3.617,3.195-6.161,7.576-7.332,12.449-.616-3.372-.005-6.64,1.434-9.499-1.657-.417-3.386-.654-5.173-.654-6.542,0-12.395,2.927-16.336,7.538-2.187,3.595-3.131,7.887-2.855,12.278-1.725-2.721-2.145-5.827-1.602-8.788-7.049.285-13.499,2.886-18.614,7.062-3.523,5.085-5.593,11.254-5.593,17.909,0,17.397,14.103,31.5,31.5,31.5,1.256,0,2.491-.082,3.708-.224,4.829,6.506,12.567,10.724,21.292,10.724,6.509,0,12.466-2.351,17.079-6.244,4.849,6.231,12.414,10.244,20.921,10.244,5.149,0,9.953-1.474,14.02-4.015,4.814,4.942,11.536,8.015,18.98,8.015,5.42,0,10.458-1.63,14.656-4.423,1.406.275,2.857.423,4.344.423,5.016,0,9.648-1.643,13.389-4.418,3.647,1.082,7.773,1.629,12.13,1.483,14.372-.479,25.775-8.269,25.471-17.399-.062-1.86-.611-3.631-1.559-5.27Z"/>
  <path class="cls-15" d="M162.151,121.364c-5.41-1.143-10.533-.272-13.762,1.964-3.066-6.768-11.083-11.186-20.042-10.383-1.634.146-3.195.476-4.685.931-2.612-4.099-7.146-7.623-12.877-9.478-3.455-1.118-6.914-1.488-10.109-1.219-5.029-6.627-14.912-9.38-24.446-6.142-7.635,2.593-13.117,8.37-14.975,14.841-3.332-2.269-7.543-2.329-10.241.132-1.869,1.704-2.597,4.242-2.224,6.813-1.82-.135-3.731-.108-5.693.107-10.644,1.167-18.697,7.349-17.989,13.808.709,6.459,9.911,10.749,20.554,9.582,1.978-.217,3.865-.608,5.625-1.141,3.071,3.001,7.674,4.795,12.732,4.525,2.733-.146,5.273-.875,7.462-2.036,2.332.636,4.836.936,7.439.797,3.047-.163,5.897-.901,8.441-2.06,2.263,1.728,4.923,3.11,7.894,3.994,7.856,2.34,15.802.612,20.929-3.883,3.932,3.116,9.359,4.823,15.198,4.3,4.238-.38,8.052-1.88,11.098-4.108,1.947.537,4.15.749,6.461.542,3.083-.276,5.847-1.251,7.976-2.65.368.096.735.194,1.114.274,8.285,1.75,15.923-1.199,17.061-6.587,1.138-5.387-4.655-11.174-12.94-12.923Z"/>
  <path class="cls-20" d="M159.973,126.15c-4.222.05-8.032,1.205-10.783,3.034-3.658-5.528-10.873-8.953-18.843-8.239-1.041.093-2.045.277-3.03.501-2.969,1.059-5.519,3.022-7.632,5.629-.003-1.929.672-3.639,1.764-5.039-2.657-2.854-6.313-5.229-10.664-6.638-2.616-.847-5.233-1.261-7.739-1.3-1.207-3.419-3.353-6.397-6.423-8.471-8.628-5.827-21.143-2.376-27.954,7.708-.097.144-.182.292-.275.437-1.043,2.447-1.622,5.128-1.721,7.896-.999-1.981-1.36-4.083-1.22-6.145-1.332-.042-2.703.074-4.086.401-5.259,1.243-9.176,4.925-10.454,9.221-2.533-.778-5.367-1.244-8.378-1.284-7.365-.098-13.803,2.309-17.133,5.935-.284.964-.405,1.948-.296,2.942.709,6.459,9.91,10.749,20.554,9.582,1.978-.217,3.865-.608,5.625-1.141,3.071,3.001,7.674,4.795,12.732,4.525,2.733-.146,5.273-.875,7.462-2.036,2.332.636,4.836.936,7.439.797,3.047-.163,5.897-.901,8.441-2.06,2.263,1.728,4.923,3.11,7.894,3.995,7.856,2.34,15.802.612,20.929-3.883,3.932,3.116,9.359,4.823,15.198,4.3,4.238-.38,8.052-1.88,11.098-4.108,1.947.537,4.15.749,6.461.542,3.083-.276,5.847-1.251,7.976-2.65.368.096.735.194,1.114.274,8.285,1.75,15.923-1.199,17.061-6.587.015-.072.016-.145.029-.218-1.403-4.594-7.665-8.008-15.147-7.92Z"/>
  <g>
    <path class="cls-4" d="M73.93,163.65c0,3.76-3.048,6.809-6.809,6.809s-6.809-3.048-6.809-6.809,3.048-6.809,6.809-6.809,6.809,3.048,6.809,6.809Z"/>
    <path class="cls-6" d="M95.925,151.355c0,3.101-2.514,5.615-5.615,5.615s-5.615-2.514-5.615-5.615,2.514-5.615,5.615-5.615,5.615,2.514,5.615,5.615Z"/>
    <path class="cls-3" d="M132.206,142.666c0,3.101-2.514,5.615-5.615,5.615s-5.615-2.514-5.615-5.615,2.514-5.615,5.615-5.615,5.615,2.514,5.615,5.615Z"/>
    <path class="cls-5" d="M78.35,140.647c0,3.101-2.514,5.615-5.615,5.615s-5.615-2.514-5.615-5.615,2.514-5.615,5.615-5.615,5.615,2.514,5.615,5.615Z"/>
    <path class="cls-1" d="M113.095,169.886c0,2.734-2.216,4.949-4.949,4.949s-4.949-2.216-4.949-4.949,2.216-4.949,4.949-4.949,4.949,2.216,4.949,4.949Z"/>
    <path class="cls-7" d="M61.633,187.256c0,2.497-2.024,4.52-4.52,4.52s-4.52-2.024-4.52-4.52,2.024-4.52,4.52-4.52,4.52,2.024,4.52,4.52Z"/>
    <path class="cls-9" d="M51.946,171.816c0,1.765-1.431,3.196-3.196,3.196s-3.196-1.431-3.196-3.196,1.431-3.197,3.196-3.197,3.196,1.431,3.196,3.197Z"/>
    <path class="cls-10" d="M49.736,152.772c0,1.765-1.431,3.197-3.197,3.197s-3.196-1.431-3.196-3.197,1.431-3.196,3.196-3.196,3.197,1.431,3.197,3.196Z"/>
    <path class="cls-12" d="M87.892,173.569c0,1.765-1.431,3.197-3.197,3.197s-3.196-1.431-3.196-3.197,1.431-3.196,3.196-3.196,3.197,1.431,3.197,3.196Z"/>
    <path class="cls-11" d="M110.939,154.04c0,1.765-1.431,3.197-3.197,3.197s-3.196-1.431-3.196-3.197,1.431-3.196,3.196-3.196,3.197,1.431,3.197,3.196Z"/>
    <path class="cls-8" d="M103.654,189.732c0,1.765-1.431,3.196-3.196,3.196s-3.197-1.431-3.197-3.196,1.431-3.196,3.197-3.196,3.196,1.431,3.196,3.196Z"/>
    <path class="cls-2" d="M129.787,166.689c0,1.765-1.431,3.196-3.196,3.196s-3.197-1.431-3.197-3.196,1.431-3.196,3.197-3.196,3.196,1.431,3.196,3.196Z"/>
  </g>
</svg>